<svg width="215" height="82" viewBox="0 0 215 82" fill="none" xmlns="http://www.w3.org/2000/svg">
<path d="M31.5 0.866025C32.4282 0.330127 33.5718 0.330127 34.5 0.866025L55.7487 13.134C56.6769 13.6699 57.2487 14.6603 57.2487 15.7321V40.2679C57.2487 41.3397 56.6769 42.3301 55.7487 42.866L34.5 55.134C33.5718 55.6699 32.4282 55.6699 31.5 55.134L10.2513 42.866C9.32309 42.3301 8.75129 41.3397 8.75129 40.2679V15.7321C8.75129 14.6603 9.32309 13.6699 10.2513 13.134L31.5 0.866025Z" fill="#D9D9D9"/>
<path d="M32 3.86603C32.9282 3.33013 34.0718 3.33013 35 3.86603L54.0836 14.884C55.0119 15.4199 55.5836 16.4103 55.5836 17.4821V39.5179C55.5836 40.5897 55.0119 41.5801 54.0836 42.116L35 53.134C34.0718 53.6699 32.9282 53.6699 32 53.134L12.9164 42.116C11.9881 41.5801 11.4164 40.5897 11.4164 39.5179V17.482C11.4164 16.4103 11.9881 15.4199 12.9164 14.884L32 3.86603Z" fill="url(#paint0_linear_48_5)"/>
<path d="M14.4653 49.9138C15.411 49.3507 16.589 49.3507 17.5347 49.9138L28.3912 56.3776C29.2997 56.9186 29.8564 57.8979 29.8564 58.9553V72.0447C29.8564 73.1021 29.2997 74.0814 28.3912 74.6224L17.5347 81.0862C16.589 81.6493 15.411 81.6493 14.4653 81.0862L3.60885 74.6224C2.70028 74.0814 2.14359 73.1021 2.14359 72.0447V58.9553C2.14359 57.8979 2.70028 56.9186 3.60885 56.3776L14.4653 49.9138Z" fill="#D9D9D9"/>
<path d="M15 51.866C15.9282 51.3301 17.0718 51.3301 18 51.866L27.5574 57.384C28.4856 57.9199 29.0574 58.9103 29.0574 59.9821V71.018C29.0574 72.0897 28.4856 73.0801 27.5574 73.616L18 79.134C17.0718 79.6699 15.9282 79.6699 15 79.134L5.44263 73.616C4.51443 73.0801 3.94263 72.0897 3.94263 71.018V59.9821C3.94263 58.9103 4.51443 57.9199 5.44263 57.384L15 51.866Z" fill="url(#paint1_linear_48_5)"/>
<path d="M43.552 54.798C44.4534 54.3012 45.5466 54.3012 46.448 54.798L52.9743 58.3947C53.9317 58.9223 54.5263 59.9289 54.5263 61.0221V67.9779C54.5263 69.0711 53.9317 70.0777 52.9743 70.6053L46.448 74.202C45.5466 74.6988 44.4534 74.6988 43.552 74.202L37.0257 70.6053C36.0683 70.0777 35.4737 69.0711 35.4737 67.9779V61.0221C35.4737 59.9289 36.0683 58.9223 37.0257 58.3947L43.552 54.798Z" fill="#D9D9D9"/>
<path d="M43.5638 56.7831C44.4591 56.295 45.541 56.295 46.4362 56.7831L51.2304 59.3973C52.1944 59.9229 52.7942 60.9332 52.7942 62.0312V66.9688C52.7942 68.0668 52.1944 69.0771 51.2304 69.6027L46.4362 72.2169C45.541 72.705 44.459 72.705 43.5638 72.2169L38.7696 69.6027C37.8056 69.0771 37.2058 68.0668 37.2058 66.9688V62.0312C37.2058 60.9332 37.8056 59.9229 38.7696 59.3973L43.5638 56.7831Z" fill="url(#paint2_linear_48_5)"/>
<path d="M82.6528 46V34.3636H89.6756V35.6136H84.0619V39.5455H89.3119V40.7955H84.0619V44.75H89.7665V46H82.6528ZM102.963 34.3636V46H101.599L95.2581 36.8636H95.1444V46H93.7353V34.3636H95.099L101.463 43.5227H101.576V34.3636H102.963ZM115.257 38C115.132 37.6174 114.967 37.2746 114.762 36.9716C114.562 36.6648 114.321 36.4034 114.041 36.1875C113.764 35.9716 113.45 35.8068 113.098 35.6932C112.745 35.5795 112.359 35.5227 111.939 35.5227C111.249 35.5227 110.622 35.7008 110.058 36.0568C109.494 36.4129 109.045 36.9375 108.711 37.6307C108.378 38.3239 108.211 39.1742 108.211 40.1818C108.211 41.1894 108.38 42.0398 108.717 42.733C109.054 43.4261 109.511 43.9508 110.086 44.3068C110.662 44.6629 111.31 44.8409 112.029 44.8409C112.696 44.8409 113.283 44.6989 113.791 44.4148C114.302 44.1269 114.7 43.7216 114.984 43.1989C115.272 42.6723 115.416 42.053 115.416 41.3409L115.848 41.4318H112.348V40.1818H116.779V41.4318C116.779 42.3902 116.575 43.2235 116.166 43.9318C115.761 44.6402 115.2 45.1894 114.484 45.5795C113.772 45.9659 112.954 46.1591 112.029 46.1591C110.999 46.1591 110.094 45.9167 109.314 45.4318C108.537 44.947 107.931 44.2576 107.495 43.3636C107.064 42.4697 106.848 41.4091 106.848 40.1818C106.848 39.2614 106.971 38.4337 107.217 37.6989C107.467 36.9602 107.819 36.3314 108.274 35.8125C108.728 35.2936 109.266 34.8958 109.887 34.6193C110.509 34.3428 111.192 34.2045 111.939 34.2045C112.552 34.2045 113.124 34.2973 113.654 34.483C114.189 34.6648 114.664 34.9242 115.081 35.2614C115.501 35.5947 115.851 35.9943 116.132 36.4602C116.412 36.9223 116.605 37.4356 116.711 38H115.257ZM122.122 34.3636V46H120.713V34.3636H122.122ZM135.694 34.3636V46H134.331L127.99 36.8636H127.876V46H126.467V34.3636H127.831L134.194 43.5227H134.308V34.3636H135.694ZM140.034 46V34.3636H147.057V35.6136H141.443V39.5455H146.693V40.7955H141.443V44.75H147.148V46H140.034ZM151.117 46V34.3636H158.139V35.6136H152.526V39.5455H157.776V40.7955H152.526V44.75H158.23V46H151.117ZM162.199 46V34.3636H166.131C167.04 34.3636 167.786 34.5189 168.37 34.8295C168.953 35.1364 169.385 35.5587 169.665 36.0966C169.945 36.6345 170.085 37.2462 170.085 37.9318C170.085 38.6174 169.945 39.2254 169.665 39.7557C169.385 40.286 168.955 40.7027 168.375 41.0057C167.796 41.3049 167.055 41.4545 166.154 41.4545H162.972V40.1818H166.108C166.729 40.1818 167.229 40.0909 167.608 39.9091C167.991 39.7273 168.267 39.4697 168.438 39.1364C168.612 38.7992 168.699 38.3977 168.699 37.9318C168.699 37.4659 168.612 37.0587 168.438 36.7102C168.263 36.3617 167.985 36.0928 167.603 35.9034C167.22 35.7102 166.714 35.6136 166.085 35.6136H163.608V46H162.199ZM167.676 40.7727L170.54 46H168.904L166.085 40.7727H167.676ZM175.363 34.3636V46H173.953V34.3636H175.363ZM188.935 34.3636V46H187.571L181.231 36.8636H181.117V46H179.708V34.3636H181.071L187.435 43.5227H187.549V34.3636H188.935ZM201.229 38C201.104 37.6174 200.939 37.2746 200.735 36.9716C200.534 36.6648 200.294 36.4034 200.013 36.1875C199.737 35.9716 199.422 35.8068 199.07 35.6932C198.718 35.5795 198.332 35.5227 197.911 35.5227C197.222 35.5227 196.595 35.7008 196.03 36.0568C195.466 36.4129 195.017 36.9375 194.684 37.6307C194.35 38.3239 194.184 39.1742 194.184 40.1818C194.184 41.1894 194.352 42.0398 194.689 42.733C195.027 43.4261 195.483 43.9508 196.059 44.3068C196.635 44.6629 197.282 44.8409 198.002 44.8409C198.669 44.8409 199.256 44.6989 199.763 44.4148C200.275 44.1269 200.672 43.7216 200.957 43.1989C201.244 42.6723 201.388 42.053 201.388 41.3409L201.82 41.4318H198.32V40.1818H202.752V41.4318C202.752 42.3902 202.547 43.2235 202.138 43.9318C201.733 44.6402 201.172 45.1894 200.457 45.5795C199.744 45.9659 198.926 46.1591 198.002 46.1591C196.972 46.1591 196.066 45.9167 195.286 45.4318C194.51 44.947 193.904 44.2576 193.468 43.3636C193.036 42.4697 192.82 41.4091 192.82 40.1818C192.82 39.2614 192.943 38.4337 193.189 37.6989C193.439 36.9602 193.792 36.3314 194.246 35.8125C194.701 35.2936 195.239 34.8958 195.86 34.6193C196.481 34.3428 197.165 34.2045 197.911 34.2045C198.525 34.2045 199.097 34.2973 199.627 34.483C200.161 34.6648 200.636 34.9242 201.053 35.2614C201.474 35.5947 201.824 35.9943 202.104 36.4602C202.385 36.9223 202.578 37.4356 202.684 38H201.229ZM92.9072 65V53.3636H96.839C97.7519 53.3636 98.4981 53.5284 99.0777 53.858C99.661 54.1837 100.093 54.625 100.373 55.1818C100.653 55.7386 100.794 56.3598 100.794 57.0455C100.794 57.7311 100.653 58.3542 100.373 58.9148C100.097 59.4754 99.6686 59.9223 99.089 60.2557C98.5095 60.5852 97.7671 60.75 96.8618 60.75H94.0436V59.5H96.8163C97.4413 59.5 97.9432 59.392 98.322 59.1761C98.7008 58.9602 98.9754 58.6686 99.1459 58.3011C99.3201 57.9299 99.4072 57.5114 99.4072 57.0455C99.4072 56.5795 99.3201 56.1629 99.1459 55.7955C98.9754 55.428 98.6989 55.1402 98.3163 54.9318C97.9337 54.7197 97.4262 54.6136 96.7936 54.6136H94.3163V65H92.9072ZM114.402 59.1818C114.402 60.4091 114.18 61.4697 113.737 62.3636C113.294 63.2576 112.686 63.947 111.913 64.4318C111.14 64.9167 110.258 65.1591 109.265 65.1591C108.273 65.1591 107.39 64.9167 106.618 64.4318C105.845 63.947 105.237 63.2576 104.794 62.3636C104.351 61.4697 104.129 60.4091 104.129 59.1818C104.129 57.9545 104.351 56.8939 104.794 56C105.237 55.1061 105.845 54.4167 106.618 53.9318C107.39 53.447 108.273 53.2045 109.265 53.2045C110.258 53.2045 111.14 53.447 111.913 53.9318C112.686 54.4167 113.294 55.1061 113.737 56C114.18 56.8939 114.402 57.9545 114.402 59.1818ZM113.038 59.1818C113.038 58.1742 112.869 57.3239 112.532 56.6307C112.199 55.9375 111.746 55.4129 111.174 55.0568C110.606 54.7008 109.97 54.5227 109.265 54.5227C108.561 54.5227 107.922 54.7008 107.351 55.0568C106.782 55.4129 106.33 55.9375 105.993 56.6307C105.659 57.3239 105.493 58.1742 105.493 59.1818C105.493 60.1894 105.659 61.0398 105.993 61.733C106.33 62.4261 106.782 62.9508 107.351 63.3068C107.922 63.6629 108.561 63.8409 109.265 63.8409C109.97 63.8409 110.606 63.6629 111.174 63.3068C111.746 62.9508 112.199 62.4261 112.532 61.733C112.869 61.0398 113.038 60.1894 113.038 59.1818ZM118.291 65V53.3636H122.223C123.132 53.3636 123.878 53.5189 124.461 53.8295C125.045 54.1364 125.477 54.5587 125.757 55.0966C126.037 55.6345 126.177 56.2462 126.177 56.9318C126.177 57.6174 126.037 58.2254 125.757 58.7557C125.477 59.286 125.047 59.7027 124.467 60.0057C123.888 60.3049 123.147 60.4545 122.246 60.4545H119.064V59.1818H122.2C122.821 59.1818 123.321 59.0909 123.7 58.9091C124.083 58.7273 124.359 58.4697 124.53 58.1364C124.704 57.7992 124.791 57.3977 124.791 56.9318C124.791 56.4659 124.704 56.0587 124.53 55.7102C124.355 55.3617 124.077 55.0928 123.694 54.9034C123.312 54.7102 122.806 54.6136 122.177 54.6136H119.7V65H118.291ZM123.768 59.7727L126.632 65H124.996L122.177 59.7727H123.768ZM129.409 54.6136V53.3636H138.136V54.6136H134.477V65H133.068V54.6136H129.409ZM141.831 65V53.3636H148.808V54.6136H143.24V58.5455H148.286V59.7955H143.24V65H141.831ZM162.56 59.1818C162.56 60.4091 162.338 61.4697 161.895 62.3636C161.452 63.2576 160.844 63.947 160.071 64.4318C159.298 64.9167 158.416 65.1591 157.423 65.1591C156.431 65.1591 155.548 64.9167 154.776 64.4318C154.003 63.947 153.395 63.2576 152.952 62.3636C152.509 61.4697 152.287 60.4091 152.287 59.1818C152.287 57.9545 152.509 56.8939 152.952 56C153.395 55.1061 154.003 54.4167 154.776 53.9318C155.548 53.447 156.431 53.2045 157.423 53.2045C158.416 53.2045 159.298 53.447 160.071 53.9318C160.844 54.4167 161.452 55.1061 161.895 56C162.338 56.8939 162.56 57.9545 162.56 59.1818ZM161.196 59.1818C161.196 58.1742 161.028 57.3239 160.69 56.6307C160.357 55.9375 159.904 55.4129 159.332 55.0568C158.764 54.7008 158.128 54.5227 157.423 54.5227C156.719 54.5227 156.081 54.7008 155.509 55.0568C154.94 55.4129 154.488 55.9375 154.151 56.6307C153.817 57.3239 153.651 58.1742 153.651 59.1818C153.651 60.1894 153.817 61.0398 154.151 61.733C154.488 62.4261 154.94 62.9508 155.509 63.3068C156.081 63.6629 156.719 63.8409 157.423 63.8409C158.128 63.8409 158.764 63.6629 159.332 63.3068C159.904 62.9508 160.357 62.4261 160.69 61.733C161.028 61.0398 161.196 60.1894 161.196 59.1818ZM166.449 65V53.3636H167.858V63.75H173.267V65H166.449ZM178.378 53.3636V65H176.969V53.3636H178.378ZM192.542 59.1818C192.542 60.4091 192.32 61.4697 191.877 62.3636C191.434 63.2576 190.826 63.947 190.053 64.4318C189.28 64.9167 188.398 65.1591 187.405 65.1591C186.413 65.1591 185.53 64.9167 184.758 64.4318C183.985 63.947 183.377 63.2576 182.934 62.3636C182.491 61.4697 182.269 60.4091 182.269 59.1818C182.269 57.9545 182.491 56.8939 182.934 56C183.377 55.1061 183.985 54.4167 184.758 53.9318C185.53 53.447 186.413 53.2045 187.405 53.2045C188.398 53.2045 189.28 53.447 190.053 53.9318C190.826 54.4167 191.434 55.1061 191.877 56C192.32 56.8939 192.542 57.9545 192.542 59.1818ZM191.178 59.1818C191.178 58.1742 191.009 57.3239 190.672 56.6307C190.339 55.9375 189.886 55.4129 189.314 55.0568C188.746 54.7008 188.11 54.5227 187.405 54.5227C186.701 54.5227 186.062 54.7008 185.491 55.0568C184.922 55.4129 184.47 55.9375 184.133 56.6307C183.799 57.3239 183.633 58.1742 183.633 59.1818C183.633 60.1894 183.799 61.0398 184.133 61.733C184.47 62.4261 184.922 62.9508 185.491 63.3068C186.062 63.6629 186.701 63.8409 187.405 63.8409C188.11 63.8409 188.746 63.6629 189.314 63.3068C189.886 62.9508 190.339 62.4261 190.672 61.733C191.009 61.0398 191.178 60.1894 191.178 59.1818Z" fill="#E0897B"/>
<defs>
<linearGradient id="paint0_linear_48_5" x1="33.5" y1="3" x2="33.5" y2="54" gradientUnits="userSpaceOnUse">
<stop stop-color="#04001B"/>
<stop offset="1" stop-color="#06003E"/>
</linearGradient>
<linearGradient id="paint1_linear_48_5" x1="16.5" y1="51" x2="16.5" y2="80" gradientUnits="userSpaceOnUse">
<stop stop-color="#04001B"/>
<stop offset="1" stop-color="#06003E"/>
</linearGradient>
<linearGradient id="paint2_linear_48_5" x1="45" y1="56" x2="45" y2="73" gradientUnits="userSpaceOnUse">
<stop stop-color="#04001B"/>
<stop offset="1" stop-color="#06003E"/>
</linearGradient>
</defs>
</svg>
